<svg width="90" height="87" viewBox="0 0 90 87" fill="none" xmlns="http://www.w3.org/2000/svg">
<path d="M89.9998 7.25V87H8.18164V7.25H20.4544C25.4862 7.25 29.3766 3.3205 32.7271 0H65.4544C68.8089 3.3205 72.6994 7.25 77.7271 7.25H89.9998ZM44.9998 10.875C44.9998 12.876 46.8326 14.5 49.0907 14.5C51.353 14.5 53.1816 12.876 53.1816 10.875C53.1816 8.874 51.353 7.25 49.0907 7.25C46.8326 7.25 44.9998 8.874 44.9998 10.875ZM81.818 14.5H65.4544L57.2725 21.75H41.3303L32.7271 14.5H16.3635V79.75H81.818V14.5ZM28.6362 49.7676L32.1339 46.9002C36.2248 48.6548 38.8225 49.9888 43.4248 52.896C52.0689 44.1996 57.788 39.788 68.4039 33.9336L69.5453 36.2536C60.7866 43.0288 54.3721 50.5687 45.1348 65.25C39.4362 59.305 35.6357 55.5133 28.6362 49.7676Z" fill="#2B6777"/>
</svg>
