<svg width="166" height="166" viewBox="0 0 166 166" fill="none" xmlns="http://www.w3.org/2000/svg">
<path d="M111.109 12H55.6996C32.1289 12 13 31.1289 13 54.6996V109.59C13 133.161 32.1289 152.289 55.6996 152.289H111.109C134.679 152.289 153.808 133.161 153.808 109.59V54.6996C153.808 31.0965 134.712 12 111.109 12ZM141.358 105.018C141.358 124.439 125.634 140.164 106.213 140.164H60.5953C41.1746 140.164 25.45 124.439 25.45 105.018V59.8547C25.45 40.434 41.1746 24.7094 60.5953 24.7094H106.213C125.634 24.7094 141.358 40.434 141.358 59.8547V105.018Z" fill="white"/>
<path d="M83.9086 38.5527C59.6895 38.5527 40.0742 58.168 40.0742 82.3871C40.0742 106.606 59.6895 126.221 83.9086 126.221C108.128 126.221 127.743 106.606 127.743 82.3871C127.743 58.168 108.128 38.5527 83.9086 38.5527ZM83.9086 109.719C68.8324 109.719 56.577 97.4957 56.577 82.3871C56.577 67.3109 68.8 55.0555 83.9086 55.0555C99.0172 55.0555 111.24 67.2785 111.24 82.3871C111.208 97.4957 98.9848 109.719 83.9086 109.719Z" fill="white"/>
<path d="M124.857 44.3254C128.044 44.3254 130.628 41.7416 130.628 38.5543C130.628 35.367 128.044 32.7832 124.857 32.7832C121.67 32.7832 119.086 35.367 119.086 38.5543C119.086 41.7416 121.67 44.3254 124.857 44.3254Z" fill="white"/>
</svg>
