<svg width="166" height="166" viewBox="0 0 166 166" fill="none" xmlns="http://www.w3.org/2000/svg">
<g filter="url(#filter0_d)">
<path d="M152.123 69.1226C140.873 63.2219 130.174 71.2625 130.174 71.2625C118.794 61.5035 97.1033 58.0668 87.2795 56.9969L94.6069 22.7918L118.567 28.109C119.41 33.7504 124.305 38.0949 130.206 38.0949C136.69 38.0949 141.975 32.8426 141.975 26.3258C141.975 19.809 136.69 14.5566 130.206 14.5566C126.024 14.5566 122.36 16.7289 120.285 20.0359L89.776 14.5566L80.0494 56.8996C70.5823 57.9047 48.1139 61.2766 36.442 71.2625C36.442 71.2625 25.7428 63.2219 14.4924 69.1226C3.24203 75.0234 8.33226 87.6031 8.33226 87.6031C8.33226 87.6031 12.0932 95.3844 17.4428 98.8535C17.4428 98.8535 13.4225 125.926 44.2233 140.645C44.2233 140.645 64.8112 151.053 83.2916 150.275H83.3565C101.837 151.053 122.425 140.645 122.425 140.645C153.226 125.926 149.205 98.8535 149.205 98.8535C154.555 95.3844 158.316 87.6031 158.316 87.6031C158.316 87.6031 163.374 75.0234 152.123 69.1226ZM45.2608 94.8332C45.2608 88.4461 50.4483 83.291 56.803 83.291C63.1901 83.291 68.3451 88.4785 68.3451 94.8332C68.3451 101.22 63.1576 106.375 56.803 106.375C50.4159 106.408 45.2608 101.22 45.2608 94.8332ZM110.494 126.704C105.436 132.767 73.1436 140.159 58.4565 128.455C58.4565 128.455 49.7026 123.137 58.4565 121.192C58.4565 121.192 86.0151 137.5 107.673 121.192C107.673 121.225 115.551 120.641 110.494 126.704ZM109.294 106.408C102.907 106.408 97.7518 101.22 97.7518 94.8656C97.7518 88.4785 102.939 83.3234 109.294 83.3234C115.681 83.3234 120.836 88.5109 120.836 94.8656C120.836 101.22 115.681 106.408 109.294 106.408Z" fill="white"/>
</g>
<defs>
<filter id="filter0_d" x="-4" y="0" width="174" height="174" filterUnits="userSpaceOnUse" color-interpolation-filters="sRGB">
<feFlood flood-opacity="0" result="BackgroundImageFix"/>
<feColorMatrix in="SourceAlpha" type="matrix" values="0 0 0 0 0 0 0 0 0 0 0 0 0 0 0 0 0 0 127 0"/>
<feOffset dy="4"/>
<feGaussianBlur stdDeviation="2"/>
<feColorMatrix type="matrix" values="0 0 0 0 0 0 0 0 0 0 0 0 0 0 0 0 0 0 0.25 0"/>
<feBlend mode="normal" in2="BackgroundImageFix" result="effect1_dropShadow"/>
<feBlend mode="normal" in="SourceGraphic" in2="effect1_dropShadow" result="shape"/>
</filter>
</defs>
</svg>
