<svg width="90" height="87" viewBox="0 0 90 87" fill="none" xmlns="http://www.w3.org/2000/svg">
<path d="M65.625 7.25C66.66 7.25 67.5 8.062 67.5 9.0625V77.9375C67.5 78.938 66.66 79.75 65.625 79.75H24.375C23.34 79.75 22.5 78.938 22.5 77.9375V9.0625C22.5 8.062 23.34 7.25 24.375 7.25H65.625ZM75 7.25C75 3.248 71.64 0 67.5 0H22.5C18.36 0 15 3.248 15 7.25V79.75C15 83.752 18.36 87 22.5 87H67.5C71.64 87 75 83.752 75 79.75V7.25ZM39.375 10.875H50.625C51.66 10.875 52.5 11.687 52.5 12.6911C52.5 13.688 51.66 14.5 50.625 14.5H39.375C38.3438 14.5 37.5 13.688 37.5 12.6911C37.5 11.687 38.3438 10.875 39.375 10.875ZM45 76.125C42.9263 76.125 41.25 74.501 41.25 72.5C41.25 70.499 42.9263 68.875 45 68.875C47.07 68.875 48.7463 70.499 48.7463 72.5C48.7463 74.501 47.07 76.125 45 76.125ZM63.75 65.25H26.25V18.125H63.75V65.25Z" fill="#2B6777"/>
</svg>
