<svg width="166" height="166" viewBox="0 0 166 166" fill="none" xmlns="http://www.w3.org/2000/svg">
<path d="M154.556 122.748C154.686 125.829 144.408 129.298 139.804 130.432C135.2 131.567 135.2 133.253 135.2 133.253C134.681 139.024 133.676 139.413 133.676 139.413C109.425 140.71 109.036 144.017 109.036 144.017C100.963 150.177 89.1286 153.257 89.1286 153.257H77.327C77.327 153.257 65.5254 150.177 57.42 144.017C57.42 144.017 57.0309 140.678 32.7793 139.413C32.7793 139.413 31.7418 139.024 31.2555 133.253C31.2555 133.253 31.2555 131.6 26.6516 130.432C22.0477 129.265 11.77 125.829 11.8997 122.748C11.8997 122.748 38.4532 112.082 43.2192 86.6953C43.2192 86.6953 43.0895 85.4633 42.1168 84.8797C41.1442 84.2637 26.3598 73.4024 26.3598 73.4024C26.3598 73.4024 22.3719 65.232 31.2555 65.4266C31.2555 65.4266 38.2586 66.2047 44.1918 69.0254V41.7262C44.1918 41.6938 44.1918 41.6613 44.2243 41.6289C48.4067 23.959 64.261 10.8281 83.2278 10.8281C102.195 10.8281 118.049 23.959 122.231 41.6289C122.231 41.6613 122.231 41.6938 122.264 41.7262V69.0254C128.164 66.2047 135.2 65.4266 135.2 65.4266C144.084 65.2645 140.161 73.3699 140.161 73.3699C140.161 73.3699 125.376 84.2313 124.404 84.8473C123.431 85.4633 123.301 86.6629 123.301 86.6629C127.97 112.082 154.556 122.748 154.556 122.748Z" fill="white"/>
<path d="M44.1926 41.6289C44.1926 41.6613 44.1926 41.6938 44.1602 41.7262L44.1926 41.6289Z" fill="white"/>
<path d="M43.1211 50.902C43.1211 47.757 43.4777 44.677 44.191 41.7266V60.0773C43.4777 57.1269 43.1211 54.0469 43.1211 50.902Z" fill="white"/>
<path d="M123.269 50.902C123.269 54.0469 122.913 57.1269 122.199 60.0773V41.7266C122.913 44.677 123.269 47.7246 123.269 50.902Z" fill="white"/>
</svg>
