<svg width="166" height="166" viewBox="0 0 166 166" fill="none" xmlns="http://www.w3.org/2000/svg">
<path d="M4.89453 131.697C4.89453 131.697 30.9617 136.723 51.4199 118.664C51.4199 118.664 31.8695 118.956 22.6941 96.4548C22.6941 96.4548 34.4309 97.0383 36.052 95.7415C36.052 95.7415 11.152 89.1598 11.152 63.9032C11.152 63.9032 19.2574 67.3399 24.9313 67.3399C24.9313 67.3399 2.30078 50.7723 15.5938 24.7051C15.5938 24.7051 39.1969 55.2141 81.8316 58.1645C81.8316 58.1645 76.7414 35.8583 96.0973 23.4083C115.453 10.9583 136.106 24.7051 136.754 28.6606C136.754 28.6606 153.841 25.2887 157.569 20.7497C157.569 20.7497 156.013 30.1196 144.698 38.1278C144.698 38.1278 148.134 39.4895 161.654 33.5887C161.654 33.5887 162.4 36.7985 146.286 50.059C146.286 50.059 152.317 98.3028 104.365 132.346C56.4129 166.389 4.89453 131.697 4.89453 131.697Z" fill="white"/>
</svg>
