<svg width="24" height="24" viewBox="0 0 42 38" fill="none" xmlns="http://www.w3.org/2000/svg">
<path d="M8.12769 7.59961H35.9527C38.5777 7.59961 39.9007 8.72061 39.9007 11.0006V26.9986C39.9007 29.2596 38.5777 30.3996 35.9527 30.3996H8.12769C5.50269 30.3996 4.17969 29.2596 4.17969 26.9986V11.0006C4.17969 8.72061 5.50269 7.59961 8.12769 7.59961ZM22.0297 23.9396L36.1837 13.4326C36.6877 13.0526 37.0867 12.1786 36.4567 11.3996C35.8477 10.6206 34.7347 10.6016 33.9997 11.0766L22.0297 18.4106L10.0807 11.0766C9.34569 10.6016 8.23269 10.6206 7.62369 11.3996C6.99369 12.1786 7.39269 13.0526 7.89669 13.4326L22.0297 23.9396Z" fill="#857979"/>
</svg>
