<svg width="20" height="20" viewBox="0 0 32 33" fill="none" xmlns="http://www.w3.org/2000/svg">
<g clip-path="url(#clip0)">
<path d="M28.5714 14.4375H26.8571V9.79688C26.8571 4.3957 21.9857 0 16 0C10.0143 0 5.14286 4.3957 5.14286 9.79688V14.4375H3.42857C1.53571 14.4375 0 15.8232 0 17.5312V29.9062C0 31.6143 1.53571 33 3.42857 33H28.5714C30.4643 33 32 31.6143 32 29.9062V17.5312C32 15.8232 30.4643 14.4375 28.5714 14.4375ZM21.1429 14.4375H10.8571V9.79688C10.8571 7.23809 13.1643 5.15625 16 5.15625C18.8357 5.15625 21.1429 7.23809 21.1429 9.79688V14.4375Z" fill="#857979"/>
</g>
<defs>
<clipPath id="clip0">
<rect width="32" height="33" fill="white"/>
</clipPath>
</defs>
</svg>
